<svg width="270" height="132" viewBox="0 0 270 132" fill="none" xmlns="http://www.w3.org/2000/svg">
<path d="M39.6654 126.32C22.6313 126.306 0.212082 111.35 16.85 83.4916C31.8525 58.3709 40.0292 47.5503 38.0408 34.1111C45.3494 60.3953 15.2578 76.0066 48.512 104.884C58.1115 112.715 54.3293 126.327 39.6654 126.32Z" fill="#2B2B2B"/>
<path d="M66.7862 89.8384C55.0327 80.0012 42.2995 81.5105 46.15 45.3855C46.15 45.3855 27.5851 77.2493 48.1312 97.4712C56.9706 107.575 71.8651 113.752 60.497 131.302C73.7166 121.021 86.7812 106.577 66.7862 89.8384Z" fill="#2B2B2B"/>
<path d="M32.0674 0.00683594C32.0674 0.00683594 51.8498 24.9835 49.6706 46.2896C46.4468 77.786 64.6372 82.4074 76.9454 91.3693C64.1869 78.4884 55.0881 73.2546 59.162 53.4829C63.0919 34.4064 45.5427 16.3169 32.0674 0.00683594Z" fill="#2B2B2B"/>
<path d="M104.515 92.1509C101.475 94.9173 97.6172 96.3005 92.9417 96.3005C91.3713 96.3005 89.9088 96.0772 88.5509 95.6233C87.1929 95.1767 86.0114 94.5319 85.01 93.707C84.0087 92.8786 83.2162 91.8736 82.6399 90.6957C82.0635 89.525 81.7754 88.2211 81.7754 86.7947C81.7754 79.0971 88.3996 75.2501 101.648 75.2501H104.515C104.515 73.8417 104.468 72.5882 104.378 71.4824C104.288 70.3729 104 69.4508 103.514 68.7052C103.031 67.9524 102.253 67.3832 101.18 66.9906C100.11 66.598 98.5826 66.4035 96.6014 66.4035C91.4181 66.4035 88.7309 68.2693 88.5472 72.0011H82.6723C83.0649 65.2076 87.8232 61.8073 96.9472 61.8073C99.0184 61.8073 100.888 61.9838 102.545 62.3404C104.205 62.7006 105.603 63.3489 106.745 64.2927C107.883 65.2364 108.769 66.5187 109.407 68.1253C110.041 69.739 110.358 71.7849 110.358 74.2451V95.4972H104.515V92.1509V92.1509ZM104.515 86.8667V79.5762H100.47C91.9692 79.5762 87.7188 81.8851 87.7188 86.4885C87.7188 88.1707 88.3492 89.4602 89.6027 90.3571C90.8598 91.2576 92.5347 91.7079 94.6311 91.7079C96.587 91.7079 98.4601 91.272 100.247 90.4148C102.033 89.5431 103.456 88.3652 104.515 86.8667Z" fill="#2B2B2B"/>
<path d="M134.332 67.9632C133.478 67.6894 132.293 67.5489 130.77 67.5489C127.823 67.5489 125.251 69.1194 123.061 72.2496V95.5081H117.219V62.6069H123.061V67.1707C125.529 63.6011 128.396 61.8145 131.667 61.8145C132.495 61.8145 133.381 61.9045 134.328 62.0918V67.9632H134.332Z" fill="#2B2B2B"/>
<path d="M148.354 96.3042C139.396 96.3042 134.681 92.7633 134.224 85.6925H140.099C140.142 89.7016 142.883 91.7079 148.322 91.7079C150.764 91.7079 152.612 91.2037 153.869 90.2059C155.126 89.2009 155.753 87.951 155.753 86.4526C155.753 85.6709 155.623 85.0406 155.371 84.5723C155.119 84.0968 154.647 83.6754 153.952 83.2972C153.264 82.9153 152.302 82.5515 151.067 82.2057C149.831 81.8563 148.218 81.4205 146.208 80.891C144.252 80.3831 142.566 79.8932 141.165 79.4069C139.756 78.9207 138.6 78.3371 137.689 77.6455C136.781 76.9539 136.111 76.1075 135.668 75.1061C135.229 74.1047 135.009 72.8404 135.009 71.3203C135.009 69.9588 135.297 68.698 135.873 67.531C136.45 66.3711 137.275 65.3697 138.344 64.5305C139.418 63.6912 140.7 63.0284 142.199 62.5421C143.697 62.0595 145.39 61.8181 147.277 61.8181C155.894 61.8181 160.281 64.8835 160.443 71.0106H154.64C154.453 67.9452 152.14 66.4179 147.692 66.4179C145.711 66.4179 144.072 66.7926 142.789 67.5382C141.496 68.291 140.848 69.3824 140.848 70.8052C140.848 71.4284 140.923 71.9507 141.071 72.3829C141.222 72.8044 141.601 73.1898 142.213 73.5212C142.822 73.8562 143.726 74.2056 144.922 74.5766C146.125 74.944 147.749 75.3834 149.799 75.8877C151.805 76.3488 153.545 76.8387 155.018 77.3538C156.492 77.8761 157.713 78.4992 158.682 79.2376C159.65 79.9761 160.371 80.873 160.846 81.9356C161.315 82.991 161.552 84.3057 161.552 85.8726C161.552 87.3495 161.246 88.7218 160.634 89.9862C160.022 91.2541 159.146 92.3599 157.99 93.3037C156.841 94.251 155.447 94.9894 153.812 95.5153C152.183 96.0376 150.361 96.3042 148.354 96.3042Z" fill="#2B2B2B"/>
<path d="M180.558 96.3042C178.188 96.3042 176.009 95.9151 174.031 95.1443C172.047 94.3735 170.354 93.246 168.949 91.7584C167.544 90.2707 166.453 88.4661 165.667 86.3337C164.882 84.2013 164.493 81.7771 164.493 79.0575C164.493 76.3848 164.868 73.9786 165.617 71.8318C166.366 69.6886 167.429 67.8804 168.798 66.4071C170.174 64.9339 171.802 63.7956 173.686 63.0032C175.573 62.2071 177.662 61.8109 179.942 61.8109C182.291 61.8109 184.423 62.2035 186.336 62.9888C188.245 63.7704 189.873 64.9051 191.224 66.3891C192.568 67.8768 193.605 69.6886 194.333 71.8138C195.057 73.9498 195.42 76.3596 195.42 79.0575V80.4731H170.606C170.721 82.3858 171.056 84.0464 171.607 85.4512C172.158 86.8596 172.875 88.0194 173.75 88.9452C174.622 89.8673 175.645 90.5553 176.809 91.0164C177.972 91.481 179.222 91.7079 180.558 91.7079C181.531 91.7079 182.489 91.5747 183.447 91.3081C184.402 91.0452 185.266 90.6525 186.041 90.1375C186.811 89.6152 187.438 88.992 187.921 88.2536C188.404 87.5188 188.659 86.6651 188.681 85.6961H194.797C194.545 87.3783 194.016 88.8911 193.209 90.2239C192.402 91.5603 191.372 92.6733 190.118 93.5594C188.865 94.4455 187.417 95.1299 185.781 95.5982C184.146 96.0664 182.403 96.3042 180.558 96.3042ZM189.203 75.8769C188.742 72.7431 187.687 70.3838 186.041 68.7917C184.391 67.2032 182.359 66.4071 179.942 66.4071C177.594 66.4071 175.569 67.1852 173.873 68.7377C172.18 70.2937 171.114 72.6747 170.681 75.8733H189.203V75.8769Z" fill="#2B2B2B"/>
<path d="M211.932 96.3042C202.97 96.3042 198.259 92.7633 197.798 85.6925H203.673C203.723 89.7016 206.461 91.7079 211.896 91.7079C214.342 91.7079 216.19 91.2037 217.447 90.2059C218.704 89.2009 219.324 87.951 219.324 86.4526C219.324 85.6709 219.201 85.0406 218.949 84.5723C218.697 84.0968 218.222 83.6754 217.53 83.2972C216.842 82.9153 215.877 82.5515 214.641 82.2057C213.409 81.8563 211.792 81.4205 209.785 80.891C207.83 80.3831 206.144 79.8932 204.739 79.4069C203.338 78.9207 202.178 78.3371 201.27 77.6455C200.359 76.9539 199.685 76.1075 199.246 75.1061C198.81 74.1047 198.59 72.8404 198.59 71.3203C198.59 69.9588 198.875 68.698 199.451 67.531C200.028 66.3711 200.856 65.3697 201.926 64.5305C202.999 63.6912 204.282 63.0284 205.78 62.5421C207.278 62.0595 208.971 61.8181 210.859 61.8181C219.475 61.8181 223.866 64.8835 224.024 71.0106H218.218C218.038 67.9452 215.718 66.4179 211.273 66.4179C209.292 66.4179 207.653 66.7926 206.367 67.5382C205.078 68.291 204.429 69.3824 204.429 70.8052C204.429 71.4284 204.505 71.9507 204.653 72.3829C204.804 72.8044 205.182 73.1898 205.791 73.5212C206.403 73.8562 207.307 74.2056 208.507 74.5766C209.703 74.944 211.327 75.3834 213.38 75.8877C215.387 76.3488 217.123 76.8387 218.596 77.3538C220.069 77.8761 221.294 78.4992 222.259 79.2376C223.232 79.9761 223.952 80.873 224.424 81.9356C224.896 82.991 225.134 84.3057 225.134 85.8726C225.134 87.3495 224.828 88.7218 224.215 89.9862C223.603 91.2541 222.724 92.3599 221.571 93.3037C220.422 94.251 219.028 94.9894 217.389 95.5153C215.758 96.0376 213.939 96.3042 211.932 96.3042Z" fill="#2B2B2B"/>
<path d="M236.019 66.5116C238.644 63.3778 241.775 61.8109 245.416 61.8109C247.585 61.8109 249.505 62.2215 251.187 63.0392C252.869 63.8569 254.292 64.9987 255.459 66.4648C256.619 67.9236 257.501 69.7102 258.099 71.8174C258.697 73.9282 259 76.2479 259 78.7838C259 81.4313 258.647 83.8375 257.948 86.0059C257.246 88.1743 256.262 90.015 255.009 91.535C253.752 93.0587 252.271 94.233 250.571 95.0615C248.864 95.8863 247.023 96.3078 245.042 96.3078C241.422 96.3078 238.418 95.1983 236.022 92.9867V108.159H230.18V62.6034H236.022V66.5116H236.019ZM236.019 87.6953C238.576 90.368 241.465 91.7043 244.692 91.7043C247.203 91.7043 249.195 90.6201 250.668 88.4553C252.141 86.2905 252.88 83.063 252.88 78.7766C252.88 74.7207 252.185 71.6481 250.787 69.5481C249.393 67.4481 247.441 66.4035 244.93 66.4035C241.638 66.4035 238.666 68.2802 236.015 72.0335V87.6953H236.019Z" fill="#2B2B2B"/>
</svg>
