<svg width="158" height="85" viewBox="0 0 158 85" fill="none" xmlns="http://www.w3.org/2000/svg">
<mask id="mask0_1225_147" style="mask-type:alpha" maskUnits="userSpaceOnUse" x="34" y="0" width="91" height="85">
<path d="M34 0H124.062V84.2296H34V0Z" fill="white"/>
</mask>
<g mask="url(#mask0_1225_147)">
<path fill-rule="evenodd" clip-rule="evenodd" d="M34 26.671V65.795L90.2892 84.2341L124.062 57.5631V18.4391L67.7733 0L34 26.671Z" fill="#2B2B2B"/>
</g>
<path fill-rule="evenodd" clip-rule="evenodd" d="M107.953 46.8764C107.164 47.6425 106.084 48.0301 104.738 48.0301C103.395 48.0301 102.313 47.6425 101.525 46.8764C100.736 46.1088 100.335 45.0828 100.335 43.827C100.335 42.5247 100.735 41.4836 101.525 40.7326C102.312 39.9815 103.393 39.6014 104.739 39.6014C106.084 39.6014 107.165 39.9815 107.954 40.7311C108.743 41.4821 109.144 42.5247 109.144 43.8285C109.144 45.0828 108.743 46.1088 107.953 46.8764ZM112.85 39.8208C112.072 38.6731 110.967 37.7763 109.569 37.1544C108.176 36.534 106.553 36.2201 104.739 36.2201C102.926 36.2201 101.299 36.5355 99.9085 37.1544C98.5114 37.7763 97.4119 38.6731 96.6442 39.8208C95.8781 40.9654 95.4906 42.3144 95.4906 43.8315C95.4906 45.3653 95.8842 46.7202 96.6623 47.8558C97.4404 48.993 98.54 49.8763 99.9265 50.4786C101.308 51.0795 102.928 51.3829 104.739 51.3829C106.551 51.3829 108.175 51.078 109.567 50.4786C110.966 49.8763 112.07 48.993 112.85 47.8558C113.628 46.7202 114.021 45.3653 114.021 43.83C114.021 42.3143 113.628 40.9654 112.85 39.8192V39.8208ZM58.1767 37.3993H51.5176V35.7243C51.5176 33.9893 52.6623 32.9378 53.9436 32.69C55.8664 32.3144 60.1115 32.7951 60.1115 32.7951V28.93C60.1115 28.93 51.8181 27.7974 48.8753 30.0041C47.5654 30.9865 46.8624 32.6073 46.8624 34.5001V37.3993H44.1074V41.2658H46.8624V51.3829H51.5191V41.2643H58.1767V37.3978V37.3993ZM91.0487 36.2246L86.2312 45.1595L81.4002 36.2306L76.1156 36.2351L84.346 50.5402L88.124 50.5372L96.3318 36.2201L91.0487 36.2246ZM71.2937 44.7629C71.2937 47.0837 69.6623 48.2599 66.4432 48.2599C64.4348 48.2599 63.2345 47.5825 63.2345 46.4468C63.2345 45.5861 63.7483 44.5991 67.7546 44.5991C69.5872 44.5991 70.7168 44.5991 71.2937 44.6097V44.7629ZM67.735 36.2201C60.6298 36.2201 59.5422 39.5864 59.404 40.9969H64.3131C64.5459 40.1407 65.0281 39.2319 67.7831 39.2319C70.8941 39.2319 71.2937 40.4126 71.2937 41.4416V41.7691H67.6674C61.4485 41.7691 58.4276 43.3584 58.4276 46.6286C58.4276 48.8217 60.2317 51.3829 65.3195 51.3829C68.1992 51.3829 70.2451 50.7911 71.4138 49.6224L71.6467 51.0014H76.1156V41.4476C76.1156 37.9791 73.2976 36.2201 67.735 36.2201Z" fill="#EEEBE5"/>
</svg>
